<?xml version="1.0" encoding="utf-8"?>
<!-- Generator: Adobe Illustrator 18.1.1, SVG Export Plug-In . SVG Version: 6.00 Build 0)  -->
<svg version="1.1" id="Calque_1" xmlns="http://www.w3.org/2000/svg" xmlns:xlink="http://www.w3.org/1999/xlink" x="0px" y="0px"
	 viewBox="0 0 703.8 114.9" enable-background="new 0 0 703.8 114.9" xml:space="preserve">
<g>
	<g>
		<path fill="#28285B" d="M32.7,23v32.6H26V23H32.7z"/>
		<path fill="#28285B" d="M37.5,40.9c0-5.4,2.6-9.3,7.9-9.3c2.5,0,4.3,1.1,5.5,2.5l0.4-2h5.9v23.6h-5.9l-0.4-2
			c-1.2,1.5-3,2.5-5.5,2.5c-5.3,0-7.9-3.9-7.9-9.3V40.9z M50.5,46.7v-5.9c0-2-1.3-3.5-3.2-3.5s-3,1.4-3,3.5v5.9c0,2,1.1,3.5,3,3.5
			S50.5,48.8,50.5,46.7z"/>
	</g>
	<g>
		<path fill="#28285B" d="M118.6,32.5h18.2c10.1,0,17.5,6.5,17.5,16.3c0,10.4-7.4,16.9-17.5,16.9h-7.2v16.6h-11V32.5z M129.6,42.1
			v14h6.2c4.5,0,7.2-2.7,7.2-7.1c0-4.2-2.7-6.9-7.2-6.9H129.6z"/>
	</g>
	<g>
		<path fill="#28285B" d="M276.9,47.9v-1.5c0-3.4-2.5-5.5-6.1-5.5c-3.6,0-5.6,2-5.6,4.7c0,1.3,0.5,3.6,4.3,4.9l6.5,2.3
			c6.5,2.3,12.8,5.5,12.8,14.9c0,9.1-6.8,15.6-17.4,15.6c-10.6,0-18-5.8-18-15v-1.8h10.9v2.2c0,3.6,2.6,5.5,6.8,5.5
			c4.6,0,6.9-2.2,6.9-5.2c0-2.1-0.9-4.3-4.2-5.4l-7.8-2.8c-7.6-2.7-11.5-7.1-11.5-14.3c0-7.8,6-14.6,16.3-14.6
			c10.1,0,16.9,5.8,16.9,15v1.1H276.9z"/>
	</g>
	<g>
		<path fill="#28285B" d="M357.8,64.9v1.4c0,10.4-7,16.9-17.4,16.9c-10.6,0-17.9-6.5-17.9-16.9V48.7c0-10.4,6.2-16.9,17.9-16.9
			c10.4,0,17.4,6.5,17.4,16.9V50h-10.6v-1.1c0-4.5-2.6-7.3-7-7.3c-4.1,0-6.7,2.8-6.7,7.3V66c0,4.5,2.6,7.3,6.7,7.3
			c4.4,0,7-2.8,7-7.3v-1.1H357.8z"/>
	</g>
	<g>
		<path fill="#28285B" d="M491.9,82.4h-9l-16-28.5v28.5h-10V32.5h9.4l15.6,27.7V32.5h10V82.4z"/>
	</g>
	<g>
		<path fill="#28285B" d="M536.6,62v10.6h20.9v9.9h-31.9V32.5h31.2v9.9h-20.1v9.9h17.9V62H536.6z"/>
	</g>
	<g>
		<polygon fill="#28285B" points="423.3,42 423.3,32.1 391.4,32.1 391.4,42 401.8,42 401.8,73.3 391.4,73.3 391.4,83.2 423.3,83.2 
			423.3,73.3 412.9,73.3 412.9,42 		"/>
	</g>
	<g>
		<polygon fill="#28285B" points="219.8,42 219.8,32.1 187.9,32.1 187.9,42 198.4,42 198.4,72.9 187.9,72.9 187.9,82.8 219.8,82.8 
			219.8,72.9 209.4,72.9 209.4,42 		"/>
	</g>
	<g>
		<path fill="#28285B" d="M595.3,114.9H76.8V0h518.5V114.9z M83.2,108.5h505.7V6.4H83.2V108.5z"/>
	</g>
	<g>
		<g>
			<path fill="#28285B" d="M677.8,109.2H671V45.8c0-3.7-3-6.8-6.8-6.8s-6.8,3-6.8,6.8v11.6h-6.7V45.8c0-7.4,6.1-13.5,13.5-13.5
				s13.5,6.1,13.5,13.5V109.2z"/>
		</g>
		<g>
			<path fill="#28285B" d="M641.9,108.3h-6.7V45.8c0-3.7-3-6.8-6.8-6.8c-3.7,0-6.8,3-6.8,6.8v11.6h-6.7V45.8
				c0-7.4,6.1-13.5,13.5-13.5c7.4,0,13.5,6.1,13.5,13.5V108.3z"/>
		</g>
		<g>
			<rect x="638.5" y="69.8" fill="#28285B" width="33.2" height="6.7"/>
		</g>
		<g>
			<rect x="638.5" y="88.3" fill="#28285B" width="33.2" height="6.7"/>
		</g>
	</g>
	<g>
		<path fill="#28285B" d="M83.2,83.2H0V0h83.2V83.2z M6.4,76.8h70.4V6.4H6.4V76.8z"/>
	</g>
	<g>
		<path fill="#28285B" d="M703.8,114.9H588.9V0h114.9V114.9z M595.3,108.5h102.1V6.4H595.3V108.5z"/>
	</g>
</g>
</svg>
